<svg xmlns="http://www.w3.org/2000/svg" viewBox="0 0 32 32" width="32" height="32">
  <style>
    @keyframes wiggle {
      0%, 100% { transform: rotate(0deg); }
      25% { transform: rotate(-8deg); }
      75% { transform: rotate(8deg); }
    }
    @keyframes pulse {
      0%, 100% { filter: drop-shadow(0 0 1px rgba(239, 68, 68, 0.7)); }
      50% { filter: drop-shadow(0 0 4px rgba(239, 68, 68, 0.95)); }
    }
    .chilli {
      transform-origin: 16px 6px;
      animation: wiggle 2s ease-in-out infinite, pulse 2s ease-in-out infinite;
    }
  </style>
  <g class="chilli">
    <!-- Green stem/cap -->
    <path d="M15 4 C14 2, 18 1, 17 4 C17 5, 18 6, 16 7 C14.5 7.5, 13.5 6, 13.5 5 C13.5 4, 14.5 4.5, 15 4 Z" fill="#22c55e" />
    <path d="M15.5 5.5 C16 4.5, 17 4, 18.5 3 C17.5 4.5, 17 5.5, 16.5 6 C16 6.5, 15.5 6, 15.5 5.5 Z" fill="#15803d" />
    <!-- Red Chilli Body -->
    <path d="M16 7 C21 11, 23 17, 21 22 C19 26, 15 29, 11 30 C10 30.2, 9.5 29.5, 10 29 C13 26, 16 22, 16.5 17 C17 12, 15.5 8.5, 16 7 Z" fill="#ef4444" />
    <!-- Highlight for 3D/glossy effect -->
    <path d="M17.2 8.5 C20.2 12, 21.2 16.5, 19.8 20.5 C19 22.8, 17.5 24.8, 15.8 26.2 C15.5 26.4, 15.2 26.1, 15.3 25.8 C16.8 23.5, 18.2 20, 18.2 16.5 C18.2 13, 17.2 10, 17.2 8.5 Z" fill="#f87171" opacity="0.6" />
  </g>
</svg>